<svg xmlns="http://www.w3.org/2000/svg"  viewBox="0 0 48 48" width="100px" height="100px"><path d="M 24 0 c 13.255 0 24 10.745 24 24 S 37.255 48 24 48 S 0 37.255 0 24 S 10.745 0 24 0 z M 32.279 33.783 c 0.441 -1.354 2.51 -14.853 2.765 -17.513 c 0.077 -0.806 -0.177 -1.341 -0.676 -1.58 c -0.603 -0.29 -1.496 -0.145 -2.533 0.229 c -1.421 0.512 -19.59 8.227 -20.64 8.673 c -0.995 0.423 -1.937 0.884 -1.937 1.552 c 0 0.47 0.279 0.734 1.047 1.008 c 0.799 0.285 2.812 0.895 4.001 1.223 c 1.145 0.316 2.448 0.042 3.178 -0.412 c 0.774 -0.481 9.71 -6.46 10.351 -6.984 c 0.641 -0.524 1.152 0.147 0.628 0.672 c -0.524 0.524 -7.463 6.349 -7.466 7.301 c -0.982 1.001 -0.285 2.038 0.374 2.453 c 0.752 0.474 6.163 4.103 6.978 4.685 c 0.815 0.582 1.641 0.846 2.398 0.846 S 31.902 34.94 32.279 33.783 z"/></svg>